<svg width="200" height="200" viewBox="0 0 200 200" fill="none" xmlns="http://www.w3.org/2000/svg">
<path fill-rule="evenodd" clip-rule="evenodd" d="M72 56C72 64.8366 64.8366 72 56 72C47.1634 72 40 64.8366 40 56C40 47.1634 47.1634 40 56 40C64.8366 40 72 47.1634 72 56ZM159.996 144C159.996 152.837 152.833 160 143.996 160C135.16 160 127.996 152.837 127.996 144C127.996 135.163 135.16 128 143.996 128C152.833 128 159.996 135.163 159.996 144ZM149.748 50.6058C136.08 36.9374 113.919 36.9374 100.251 50.6058L50.7532 100.103C37.0849 113.772 37.0849 135.932 50.7532 149.601C64.4216 163.269 86.5823 163.269 100.251 149.601L149.748 100.103C163.417 86.4349 163.417 64.2741 149.748 50.6058ZM114.393 64.7479C120.251 58.89 129.748 58.89 135.606 64.7479C141.464 70.6058 141.464 80.1032 135.606 85.9611L86.1086 135.459C80.2507 141.316 70.7532 141.316 64.8954 135.459C59.0375 129.601 59.0375 120.103 64.8954 114.245L114.393 64.7479Z" fill="black"/>
</svg>
